<mxfile host="app.diagrams.net" modified="2022-08-04T15:30:56.377Z" agent="5.0 (Windows NT 10.0; Win64; x64) AppleWebKit/537.36 (KHTML, like Gecko) Chrome/103.0.0.0 Safari/537.36" etag="BGMj-jQO-MD8-2Sp1L_F" version="20.2.3" type="github">
  <diagram id="R2lEEEUBdFMjLlhIrx00" name="Page-1">
    <mxGraphModel dx="1296" dy="1785" grid="1" gridSize="10" guides="1" tooltips="1" connect="1" arrows="1" fold="1" page="1" pageScale="1" pageWidth="850" pageHeight="1100" math="0" shadow="0" extFonts="Permanent Marker^https://fonts.googleapis.com/css?family=Permanent+Marker">
      <root>
        <mxCell id="0" />
        <mxCell id="1" parent="0" />
        <mxCell id="hc4Uovo4Dv_ZHtB2tVq2-1" value="USER" style="rounded=0;whiteSpace=wrap;html=1;" vertex="1" parent="1">
          <mxGeometry x="190" y="70" width="120" height="60" as="geometry" />
        </mxCell>
        <mxCell id="hc4Uovo4Dv_ZHtB2tVq2-2" value="HAS" style="rhombus;whiteSpace=wrap;html=1;rounded=0;" vertex="1" parent="1">
          <mxGeometry x="350" y="120" width="80" height="80" as="geometry" />
        </mxCell>
        <mxCell id="hc4Uovo4Dv_ZHtB2tVq2-7" value="ADMIN" style="rounded=0;whiteSpace=wrap;html=1;" vertex="1" parent="1">
          <mxGeometry x="460" y="70" width="120" height="60" as="geometry" />
        </mxCell>
        <mxCell id="hc4Uovo4Dv_ZHtB2tVq2-8" value="" style="endArrow=classic;html=1;rounded=0;targetPerimeterSpacing=0;exitX=1;exitY=0.5;exitDx=0;exitDy=0;entryX=0;entryY=0.5;entryDx=0;entryDy=0;" edge="1" parent="1" source="hc4Uovo4Dv_ZHtB2tVq2-1" target="hc4Uovo4Dv_ZHtB2tVq2-2">
          <mxGeometry relative="1" as="geometry">
            <mxPoint x="210" y="250" as="sourcePoint" />
            <mxPoint x="370" y="250" as="targetPoint" />
          </mxGeometry>
        </mxCell>
        <mxCell id="hc4Uovo4Dv_ZHtB2tVq2-10" value="1" style="edgeLabel;resizable=0;html=1;align=left;verticalAlign=bottom;" connectable="0" vertex="1" parent="hc4Uovo4Dv_ZHtB2tVq2-8">
          <mxGeometry x="-1" relative="1" as="geometry" />
        </mxCell>
        <mxCell id="hc4Uovo4Dv_ZHtB2tVq2-11" value="1" style="edgeLabel;resizable=0;html=1;align=right;verticalAlign=bottom;" connectable="0" vertex="1" parent="hc4Uovo4Dv_ZHtB2tVq2-8">
          <mxGeometry x="1" relative="1" as="geometry">
            <mxPoint y="-9" as="offset" />
          </mxGeometry>
        </mxCell>
        <mxCell id="hc4Uovo4Dv_ZHtB2tVq2-12" value="" style="endArrow=classic;html=1;rounded=0;targetPerimeterSpacing=0;exitX=0;exitY=0.5;exitDx=0;exitDy=0;entryX=1;entryY=0.5;entryDx=0;entryDy=0;" edge="1" parent="1" source="hc4Uovo4Dv_ZHtB2tVq2-7" target="hc4Uovo4Dv_ZHtB2tVq2-2">
          <mxGeometry relative="1" as="geometry">
            <mxPoint x="250" y="50" as="sourcePoint" />
            <mxPoint x="360" y="170" as="targetPoint" />
          </mxGeometry>
        </mxCell>
        <mxCell id="hc4Uovo4Dv_ZHtB2tVq2-14" value="1" style="edgeLabel;resizable=0;html=1;align=left;verticalAlign=bottom;" connectable="0" vertex="1" parent="hc4Uovo4Dv_ZHtB2tVq2-12">
          <mxGeometry x="-1" relative="1" as="geometry">
            <mxPoint x="-17" y="6" as="offset" />
          </mxGeometry>
        </mxCell>
        <mxCell id="hc4Uovo4Dv_ZHtB2tVq2-15" value="1" style="edgeLabel;resizable=0;html=1;align=right;verticalAlign=bottom;" connectable="0" vertex="1" parent="hc4Uovo4Dv_ZHtB2tVq2-12">
          <mxGeometry x="1" relative="1" as="geometry">
            <mxPoint x="3" y="-6" as="offset" />
          </mxGeometry>
        </mxCell>
        <mxCell id="hc4Uovo4Dv_ZHtB2tVq2-16" value="ACCOUNT" style="rounded=0;whiteSpace=wrap;html=1;" vertex="1" parent="1">
          <mxGeometry x="220" y="310" width="130" height="60" as="geometry" />
        </mxCell>
        <mxCell id="hc4Uovo4Dv_ZHtB2tVq2-17" value="" style="endArrow=classic;html=1;rounded=0;targetPerimeterSpacing=0;exitX=0.5;exitY=1;exitDx=0;exitDy=0;entryX=0.5;entryY=0;entryDx=0;entryDy=0;" edge="1" parent="1" source="hc4Uovo4Dv_ZHtB2tVq2-2" target="hc4Uovo4Dv_ZHtB2tVq2-16">
          <mxGeometry relative="1" as="geometry">
            <mxPoint x="340" y="300" as="sourcePoint" />
            <mxPoint x="500" y="300" as="targetPoint" />
          </mxGeometry>
        </mxCell>
        <mxCell id="hc4Uovo4Dv_ZHtB2tVq2-19" value="n" style="edgeLabel;resizable=0;html=1;align=left;verticalAlign=bottom;" connectable="0" vertex="1" parent="hc4Uovo4Dv_ZHtB2tVq2-17">
          <mxGeometry x="-1" relative="1" as="geometry">
            <mxPoint x="2" y="15" as="offset" />
          </mxGeometry>
        </mxCell>
        <mxCell id="hc4Uovo4Dv_ZHtB2tVq2-20" value="1" style="edgeLabel;resizable=0;html=1;align=right;verticalAlign=bottom;" connectable="0" vertex="1" parent="hc4Uovo4Dv_ZHtB2tVq2-17">
          <mxGeometry x="1" relative="1" as="geometry">
            <mxPoint x="-4" y="-4" as="offset" />
          </mxGeometry>
        </mxCell>
        <mxCell id="hc4Uovo4Dv_ZHtB2tVq2-21" value="First Name" style="ellipse;whiteSpace=wrap;html=1;" vertex="1" parent="1">
          <mxGeometry y="-46" width="100" height="40" as="geometry" />
        </mxCell>
        <mxCell id="hc4Uovo4Dv_ZHtB2tVq2-23" value="LastName" style="ellipse;whiteSpace=wrap;html=1;" vertex="1" parent="1">
          <mxGeometry y="4" width="100" height="40" as="geometry" />
        </mxCell>
        <mxCell id="hc4Uovo4Dv_ZHtB2tVq2-24" value="ID Number" style="ellipse;whiteSpace=wrap;html=1;" vertex="1" parent="1">
          <mxGeometry y="56" width="100" height="40" as="geometry" />
        </mxCell>
        <mxCell id="hc4Uovo4Dv_ZHtB2tVq2-25" value="Password" style="ellipse;whiteSpace=wrap;html=1;" vertex="1" parent="1">
          <mxGeometry y="106" width="100" height="40" as="geometry" />
        </mxCell>
        <mxCell id="hc4Uovo4Dv_ZHtB2tVq2-26" value="Phone Number" style="ellipse;whiteSpace=wrap;html=1;" vertex="1" parent="1">
          <mxGeometry y="156" width="100" height="40" as="geometry" />
        </mxCell>
        <mxCell id="hc4Uovo4Dv_ZHtB2tVq2-27" value="Authentication Code" style="ellipse;whiteSpace=wrap;html=1;" vertex="1" parent="1">
          <mxGeometry y="206" width="100" height="40" as="geometry" />
        </mxCell>
        <mxCell id="hc4Uovo4Dv_ZHtB2tVq2-29" value="" style="shape=curlyBracket;whiteSpace=wrap;html=1;rounded=1;flipH=1;" vertex="1" parent="1">
          <mxGeometry x="120" y="-34" width="20" height="270" as="geometry" />
        </mxCell>
        <mxCell id="hc4Uovo4Dv_ZHtB2tVq2-30" value="" style="line;strokeWidth=4;html=1;perimeter=backbonePerimeter;points=[];outlineConnect=0;" vertex="1" parent="1">
          <mxGeometry x="130" y="96" width="60" height="10" as="geometry" />
        </mxCell>
        <mxCell id="hc4Uovo4Dv_ZHtB2tVq2-31" value="" style="line;strokeWidth=4;html=1;perimeter=backbonePerimeter;points=[];outlineConnect=0;" vertex="1" parent="1">
          <mxGeometry x="580" y="96" width="60" height="10" as="geometry" />
        </mxCell>
        <mxCell id="hc4Uovo4Dv_ZHtB2tVq2-32" value="" style="shape=curlyBracket;whiteSpace=wrap;html=1;rounded=1;" vertex="1" parent="1">
          <mxGeometry x="640" y="-40" width="20" height="280" as="geometry" />
        </mxCell>
        <mxCell id="hc4Uovo4Dv_ZHtB2tVq2-33" value="First Name" style="ellipse;whiteSpace=wrap;html=1;" vertex="1" parent="1">
          <mxGeometry x="680" y="-46" width="100" height="40" as="geometry" />
        </mxCell>
        <mxCell id="hc4Uovo4Dv_ZHtB2tVq2-34" value="LastName" style="ellipse;whiteSpace=wrap;html=1;" vertex="1" parent="1">
          <mxGeometry x="680" y="4" width="100" height="40" as="geometry" />
        </mxCell>
        <mxCell id="hc4Uovo4Dv_ZHtB2tVq2-35" value="ID Number" style="ellipse;whiteSpace=wrap;html=1;" vertex="1" parent="1">
          <mxGeometry x="680" y="56" width="100" height="40" as="geometry" />
        </mxCell>
        <mxCell id="hc4Uovo4Dv_ZHtB2tVq2-36" value="Password" style="ellipse;whiteSpace=wrap;html=1;" vertex="1" parent="1">
          <mxGeometry x="680" y="106" width="100" height="40" as="geometry" />
        </mxCell>
        <mxCell id="hc4Uovo4Dv_ZHtB2tVq2-37" value="Phone Number" style="ellipse;whiteSpace=wrap;html=1;" vertex="1" parent="1">
          <mxGeometry x="680" y="156" width="100" height="40" as="geometry" />
        </mxCell>
        <mxCell id="hc4Uovo4Dv_ZHtB2tVq2-38" value="Authentication Code" style="ellipse;whiteSpace=wrap;html=1;" vertex="1" parent="1">
          <mxGeometry x="680" y="206" width="100" height="40" as="geometry" />
        </mxCell>
      </root>
    </mxGraphModel>
  </diagram>
</mxfile>
